<svg width="77" height="16" viewBox="0 0 77 16" fill="none" xmlns="http://www.w3.org/2000/svg">
<path d="M21.6944 3.76975C20.2297 3.76975 19.0579 4.55511 18.179 6.12584V3.89826H14.4219V15.8501H18.179V10.1954C18.179 9.1959 18.3914 8.49621 18.8162 8.09639C19.2556 7.69656 19.9074 7.49665 20.7716 7.49665H21.6944V3.76975Z" fill="white"/>
<path fill-rule="evenodd" clip-rule="evenodd" d="M22.8332 9.89558C22.8332 11.6805 23.3751 13.1441 24.459 14.2865C25.543 15.4288 26.8466 16 28.3699 16C29.8933 16 31.109 15.3717 32.0172 14.1151V15.8501H35.7743V3.89826H32.0172V5.46185C31.1823 4.33378 29.9812 3.76975 28.4139 3.76975C26.8612 3.76975 25.543 4.34806 24.459 5.50469C23.3751 6.64703 22.8332 8.11067 22.8332 9.89558ZM32.0172 9.87416C32.0172 10.8166 31.7462 11.5448 31.2042 12.0589C30.6623 12.573 30.0398 12.83 29.3367 12.83C28.6336 12.83 28.0111 12.5801 27.4691 12.0803C26.9272 11.5663 26.6562 10.838 26.6562 9.89558C26.6562 8.95315 26.9272 8.2249 27.4691 7.71084C28.0111 7.19679 28.6336 6.93976 29.3367 6.93976C30.0398 6.93976 30.6623 7.19679 31.2042 7.71084C31.7462 8.21062 32.0172 8.93173 32.0172 9.87416Z" fill="white"/>
<path d="M44.3045 12.7871L41.5141 3.89826H37.5153L41.8656 15.8501H46.7433L51.0936 3.89826H47.0948L44.3045 12.7871Z" fill="white"/>
<path fill-rule="evenodd" clip-rule="evenodd" d="M53.6418 14.3293C54.7843 15.4431 56.249 16 58.036 16C59.4861 16 60.7385 15.6359 61.7931 14.9076C62.8477 14.1651 63.5508 13.1941 63.9024 11.9946H59.8377C59.6619 12.2088 59.5154 12.3659 59.3982 12.4659C59.2957 12.5515 59.1273 12.6444 58.8929 12.7443C58.6585 12.83 58.2997 12.8728 57.8163 12.8728C57.3476 12.8728 56.9082 12.7086 56.498 12.3802C56.0879 12.0375 55.8462 11.602 55.773 11.0736H64.2099C64.2685 10.7166 64.2978 10.3311 64.2978 9.917C64.2978 7.98929 63.7046 6.48282 62.5182 5.39759C61.3317 4.31236 59.8377 3.76975 58.036 3.76975C56.2344 3.76975 54.7623 4.3195 53.6198 5.41901C52.4919 6.51852 51.928 7.99643 51.928 9.85275C51.928 11.7091 52.4992 13.2012 53.6418 14.3293ZM59.6399 7.4324C60.0793 7.7751 60.3284 8.2249 60.3869 8.78179H55.7949C55.8975 8.2249 56.1538 7.7751 56.5639 7.4324C56.9741 7.07541 57.4794 6.89692 58.08 6.89692C58.6805 6.89692 59.2005 7.07541 59.6399 7.4324Z" fill="white"/>
<path d="M76.4068 15.2718C76.8023 14.8862 77 14.415 77 13.8581C77 13.2869 76.8023 12.8086 76.4068 12.423C76.0113 12.0375 75.5206 11.8447 74.9347 11.8447C74.3634 11.8447 73.8801 12.0375 73.4846 12.423C73.0891 12.8086 72.8914 13.2869 72.8914 13.8581C72.8914 14.415 73.0891 14.8862 73.4846 15.2718C73.8801 15.6573 74.3634 15.8501 74.9347 15.8501C75.5206 15.8501 76.0113 15.6573 76.4068 15.2718Z" fill="white"/>
<path d="M0 0.813923V3.59839H4.19652V15.8501H7.95361V3.59839H12.1721V0.813923H0Z" fill="white"/>
<path d="M66.7111 0V15.8501H70.4682V0H66.7111Z" fill="white"/>
</svg>
